<?xml version="1.0" encoding="UTF-8"?>
<svg xmlns="http://www.w3.org/2000/svg" xmlns:xlink="http://www.w3.org/1999/xlink" width="20px" height="23px" viewBox="0 0 20 22" version="1.1">
<g id="surface1">
<path style=" stroke:none;fill-rule:nonzero;fill:rgb(100%,100%,100%);fill-opacity:1;" d="M 4.476562 19.25 L 0.332031 19.25 L 0.332031 6.398438 L 4.476562 6.398438 Z M 2.402344 4.644531 C 1.074219 4.644531 0 3.585938 0 2.3125 C 0 1.035156 1.074219 0 2.402344 0 C 3.726562 0 4.804688 1.035156 4.804688 2.3125 C 4.804688 3.585938 3.726562 4.644531 2.402344 4.644531 Z M 19.996094 19.25 L 15.855469 19.25 L 15.855469 12.992188 C 15.855469 11.503906 15.824219 9.589844 13.699219 9.589844 C 11.542969 9.589844 11.214844 11.210938 11.214844 12.886719 L 11.214844 19.25 L 7.070312 19.25 L 7.070312 6.398438 L 11.050781 6.398438 L 11.050781 8.152344 L 11.105469 8.152344 C 11.660156 7.140625 13.011719 6.074219 15.03125 6.074219 C 19.226562 6.074219 20 8.734375 20 12.191406 L 20 19.25 Z M 19.996094 19.25 "/>
</g>
</svg>
